<svg xmlns="http://www.w3.org/2000/svg" width="104" height="50" version="1.1">
    <g>
        <title>Layer 1</title>
        <path id="svg_1" d="m0,4.32l0,-3.96l20.16,-0.36l0,4.32l-6.552,1.368l11.304,34.992l12.024,-34.92l-6.696,-1.44l0,-3.96l19.44,-0.36l0,4.32l-5.616,1.44l-15.984,44.64l-7.2,0l-15.336,-44.64l-5.544,-1.44zm64.3392,40.32l0,-38.88l-6.12,-1.44l0,-3.96l13.68,-0.36l9,0c14.04,0 22.68,8.64 22.68,24.48s-9.36,25.92 -23.76,25.92l-21.6,0l0,-4.32l6.12,-1.44zm7.56,0l8.28,0c9,0 15.12,-6.12 15.12,-19.8c0,-13.32 -5.76,-19.08 -14.76,-19.08l-8.64,0l0,38.88z" fill="#61DAFB"/>
    </g>
</svg>
